<svg width="260" height="199" viewBox="0 0 260 199" fill="none" xmlns="http://www.w3.org/2000/svg">
<path d="M172 151.5C172.4 151.9 179.506 151.969 182.839 151.969C182.792 151.856 182.742 151.745 182.689 151.634C181.976 150.153 180.699 148.86 179 147.733C179 150.966 171.5 151 172 151.5Z" fill="#010101"/>
<path d="M183.385 154C183.385 157.233 171.6 157.1 172 157.5C172.385 157.885 179.498 157.992 183 158C183.336 156.742 183.464 155.175 183.385 154Z" fill="#010101"/>
<path d="M197.182 139.395C179.857 141.869 138.659 142.576 123.809 113.948M123.809 113.948C111.425 128.085 74.992 148.938 28.331 119.25M123.809 113.948C120.034 107.087 116.392 90.7705 130.924 78.9586M136.537 65.175C137.386 71.1126 134.062 76.1313 132.294 77.8984C131.82 78.2474 131.364 78.601 130.924 78.9586M136.537 65.175C135.477 57.753 150.326 15.3414 195.937 15.3414C214.323 15.6949 252.58 26.1564 258.52 65.175C258.744 66.7042 258.902 68.4822 258.967 70.4763M136.537 65.175C134.345 53.2406 130 43.9929 124.544 36.8897M16.6764 65.175C16.009 85.1905 19.5415 102.687 28.331 119.25M16.6764 65.175C9.25133 57.0461 -3.90177 38.8798 2.88682 31.2457C9.67541 23.6116 23.9184 30.8923 30.1913 35.4868M16.6764 65.175C16.9988 55.5085 20.8476 46.8212 26.675 39.5C27.7795 38.1123 28.9551 36.7737 30.1913 35.4868M28.331 119.25C33.5098 129.008 40.5136 138.443 49.5587 147.877C63.7359 162.665 87.7261 177.229 106.162 186.936M30.1913 35.4868C43.894 21.2216 65.0357 13.3104 79.2585 15.3414C84.0521 15.1285 90.4633 15.7945 97.2912 17.9659M97.2912 17.9659C101.18 11.0828 110.868 -1.8353 118.506 1.55762C126.143 4.95054 125.714 26.526 124.544 36.8897M97.2912 17.9659C106.619 20.9323 116.724 26.7079 124.544 36.8897M246.852 49.2706C250.686 51.7446 258.475 59.4493 258.967 70.4763M258.967 70.4763C259.498 86.7373 253.873 117.369 227.759 144.668M227.759 48.2103C219.274 51.7446 203.787 66.0231 209.727 94.8629C210.434 98.3972 210.788 106.314 206.545 109.707C200.181 119.25 189.786 141.306 203.363 145.757C206.899 147.505 216.728 149.734 227.759 144.668M227.759 144.668C226.731 145.743 225.67 146.814 224.577 147.877C212.995 157.347 184.289 180.377 156.691 192.41C153.155 194.177 145.422 197.351 142.902 197.711C135.477 198.771 126.99 196.651 123.809 195.59C119.262 193.56 113.106 190.592 106.162 186.936M112.141 133.033C115.677 135.507 125.718 140.455 137.598 140.455C149.444 140.455 170.065 141.805 179 147.733M183.209 153.179C183.297 153.618 183.356 153.559 183.385 154M183.209 153.179C183.126 152.762 183.002 152.359 182.839 151.969M183.209 153.179C183.102 152.643 182.927 152.128 182.689 151.634M93.0483 160.601C93.2755 160.828 93.941 161.347 95.1697 162.054M95.1697 162.054C95.2665 162.11 95.3667 162.167 95.4705 162.224M95.1697 162.054L95.4705 162.224M95.4705 162.224C95.9869 162.513 96.5913 162.829 97.2912 163.166M97.2912 163.166C98.8866 163.934 100.978 164.813 103.655 165.728M97.2912 163.166L103.655 165.728M103.655 165.728C105.041 166.202 106.583 166.686 108.295 167.169M106.162 186.936C103.44 185.061 100.304 181.989 99.2961 178.626M108.295 167.169C115.115 169.093 124.623 171.009 137.598 172.264C158.025 174.24 171.493 170.488 178.256 164.82M108.295 167.169C105.907 168.09 104.058 169.092 102.66 170.143M110.02 184.987C107.114 184.281 100.9 182.019 99.2961 178.626M99.2961 178.626C98.7773 176.895 98.8216 175.087 99.7752 173.324M111.08 179.686C108.847 180.097 103.46 179.401 99.7752 173.324M99.7752 173.324C100.364 172.237 101.298 171.167 102.66 170.143M111.08 174.385C109.235 174.106 104.968 172.867 102.66 170.143M141.841 80.0189C140.574 78.6052 136.615 76.4139 130.924 78.9586M171.541 92.7424C172.224 92.1356 173.112 91.5158 174.136 91.0171C177.884 89.192 183.453 88.9891 187.452 96.9835M182.839 151.969C179.506 151.969 172.4 151.9 172 151.5C171.5 151 179 150.966 179 147.733M182.839 151.969C182.792 151.856 182.742 151.745 182.689 151.634M179 147.733C180.699 148.86 181.976 150.153 182.689 151.634M183.385 154C183.385 157.233 171.6 157.1 172 157.5C172.385 157.885 179.498 157.992 183 158M183.385 154C183.464 155.175 183.336 156.742 183 158M178.256 164.82C179.508 163.771 180.531 162.656 181.325 161.5M178.256 164.82C178.578 164.551 178.884 164.277 179.175 164M181.325 161.5C181.995 160.525 182.503 159.52 182.849 158.5C182.903 158.34 182.954 158.173 183 158M181.325 161.5C178.825 164 170 162 170.5 162.5C170.9 162.9 175.842 164 179.175 164M181.325 161.5C180.735 162.36 180.018 163.196 179.175 164M183.385 158C183.263 158 183.134 158 183 158" stroke="black" stroke-width="2"/>
<path d="M94.6544 69.3837C95.3527 67.1891 98.0443 62.7875 103.225 62.7371C108.406 62.6867 110.463 67.0421 110.844 69.2261C109.398 68.5109 105.858 67.0869 103.267 67.1121C100.677 67.1373 96.4462 68.637 94.6544 69.3837Z" fill="black"/>
<path d="M41.9287 86.3048C42.9547 80.8255 47.4005 71.8126 56.9749 79.5952C53.7335 79.2621 46.1862 80.1378 41.9287 86.3048Z" fill="black"/>
<path fill-rule="evenodd" clip-rule="evenodd" d="M94.6544 91.2483C95.7231 90.144 98.9346 87.7188 98.0627 86.8522C97.1907 85.9856 96.2603 86.5052 95.9041 86.8732C94.4863 89.0748 90.7269 92.4831 89 92.4999C86.8414 92.5209 83.6006 92.6769 82.5 90.4999C83.9213 88.6629 86.1649 84.3428 86.1478 82.5928C86.1308 80.8428 82.5289 80.4403 80.7301 80.4578C77.8555 80.8504 72.1085 81.8544 72.117 82.7294C71.401 83.101 70.1892 84.2795 71.0696 86.0211C71.44 87.1114 72.3212 89.7189 76.6555 91.4269C77.3785 91.7845 78.3951 92.7226 76.6768 93.6144C75.6117 95.0832 72.6956 97.819 65.7796 97.0112C65.0566 96.6536 63.3967 96.1593 62.5417 97.0427C61.4731 98.147 64.7323 100.303 65.8116 100.292C66.8909 100.282 67.3888 100.271 68.5 103.542C69.2444 106.087 72.8185 111.684 78.871 112.5C82.832 112.826 90.0986 112.378 92.6463 107.978C94.4168 105.044 97.3044 97.3481 94.6544 91.2483ZM78.5928 82.6663C81.1746 81.7661 81.8342 82.9994 81.8413 83.7286C81.8448 84.0931 81.2065 85.0474 78.6247 85.9476C76.0429 86.8478 75.3833 85.6145 75.3762 84.8854C75.3726 84.5208 76.011 83.5665 78.5928 82.6663ZM91.7337 103.542C88.478 101.751 80.9045 99.9285 76.6555 106.971C80.2709 108.758 88.3481 110.576 91.7337 103.542Z" fill="black"/>
<path d="M94.6544 69.3837C95.3527 67.1891 98.0443 62.7875 103.225 62.7371C108.406 62.6867 110.463 67.0421 110.844 69.2261C109.398 68.5109 105.858 67.0869 103.267 67.1121C100.677 67.1373 96.4462 68.637 94.6544 69.3837Z" stroke="black" stroke-width="0.1"/>
<path d="M41.9287 86.3048C42.9547 80.8255 47.4005 71.8126 56.9749 79.5952C53.7335 79.2621 46.1862 80.1378 41.9287 86.3048Z" stroke="black" stroke-width="0.1"/>
<path fill-rule="evenodd" clip-rule="evenodd" d="M94.6544 91.2483C95.7231 90.144 98.9346 87.7188 98.0627 86.8522C97.1907 85.9856 96.2603 86.5052 95.9041 86.8732C94.4863 89.0748 90.7269 92.4831 89 92.4999C86.8414 92.5209 83.6006 92.6769 82.5 90.4999C83.9213 88.6629 86.1649 84.3428 86.1478 82.5928C86.1308 80.8428 82.5289 80.4403 80.7301 80.4578C77.8555 80.8504 72.1085 81.8544 72.117 82.7294C71.401 83.101 70.1892 84.2795 71.0696 86.0211C71.44 87.1114 72.3212 89.7189 76.6555 91.4269C77.3785 91.7845 78.3951 92.7226 76.6768 93.6144C75.6117 95.0832 72.6956 97.819 65.7796 97.0112C65.0566 96.6536 63.3967 96.1593 62.5417 97.0427C61.4731 98.147 64.7323 100.303 65.8116 100.292C66.8909 100.282 67.3888 100.271 68.5 103.542C69.2444 106.087 72.8185 111.684 78.871 112.5C82.832 112.826 90.0986 112.378 92.6463 107.978C94.4168 105.044 97.3044 97.3481 94.6544 91.2483ZM78.5928 82.6663C81.1746 81.7661 81.8342 82.9994 81.8413 83.7286C81.8448 84.0931 81.2065 85.0474 78.6247 85.9476C76.0429 86.8478 75.3833 85.6145 75.3762 84.8854C75.3726 84.5208 76.011 83.5665 78.5928 82.6663ZM91.7337 103.542C88.478 101.751 80.9045 99.9285 76.6555 106.971C80.2709 108.758 88.3481 110.576 91.7337 103.542Z" stroke="black" stroke-width="0.1"/>
<path d="M143.027 91.1294C140.6 90.7831 135.746 90.9216 135.746 94.2457C135.746 97.5697 138.867 98.747 140.947 99.4395C143.721 99.7857 149.268 100.478 150.308 98.4007C151.239 96.5425 149.684 92.7914 143.027 91.1294Z" fill="black"/>
<path fill-rule="evenodd" clip-rule="evenodd" d="M161.75 108.788C155.163 109.827 141.155 110.243 137.827 103.594C137.48 102.556 136.37 100.478 134.706 100.478C133.042 100.478 134.706 104.633 135.746 106.711C135.746 109.135 136.162 114.605 137.827 117.098C139.907 119.868 147.396 123.954 160.71 118.137C162.444 116.06 165.079 111.281 161.75 108.788ZM144.067 116.06C150.725 111.905 155.163 114.328 156.549 116.06C156.549 117.722 155.163 118.137 154.469 118.137H145.108C142.611 118.137 143.374 116.752 144.067 116.06Z" fill="black"/>
<path d="M145.108 118.137C142.611 118.137 143.374 116.752 144.067 116.06C150.725 111.905 155.163 114.328 156.549 116.06C156.549 117.722 155.163 118.137 154.469 118.137M145.108 118.137C147.604 118.137 152.389 118.137 154.469 118.137M145.108 118.137H154.469M143.027 91.1294C140.6 90.7831 135.746 90.9216 135.746 94.2457C135.746 97.5697 138.867 98.747 140.947 99.4395C143.721 99.7857 149.268 100.478 150.308 98.4007C151.239 96.5425 149.684 92.7914 143.027 91.1294ZM161.75 108.788C155.163 109.827 141.155 110.243 137.827 103.594C137.48 102.556 136.37 100.478 134.706 100.478C133.042 100.478 134.706 104.633 135.746 106.711C135.746 109.135 136.162 114.605 137.827 117.098C139.907 119.868 147.396 123.954 160.71 118.137C162.444 116.06 165.079 111.281 161.75 108.788Z" stroke="black" stroke-width="0.5"/>
</svg>
